# AST/ASF file generated using VICON BodyLanguage
# -----------------------------------------------
:version 1.10
:name VICON
:units
  mass 1.0
  length 0.45
  angle deg
:documentation
   .ast/.asf automatically generated from VICON data using
   VICON BodyBuilder and BodyLanguage model FoxedUp or BRILLIANT.MOD
:root
   order TX TY TZ RX RY RZ
   axis XYZ
   position 0 0 0  
   orientation 0 0 0 
:bonedata
  begin
     id 1 
     name lhipjoint
     direction 0.573633 -0.743009 0.344793 
     length 2.46257 
     axis 0 0 0  XYZ
  end
  begin
     id 2 
     name lfemur
     direction 0.34202 -0.939693 0  
     length 7.3842  
     axis 0 0 20  XYZ
    dof rx ry rz
    limits (-160.0 20.0)
           (-70.0 70.0)
           (-60.0 70.0)
  end
  begin
     id 3 
     name ltibia
     direction 0.34202 -0.939693 0   
     length 7.50407   
     axis 0 0 20   XYZ
    dof rx
    limits (-10.0 170.0)
  end
  begin
     id 4 
     name lfoot
     direction 0.110749 -0.304281 0.946123   
     length 1.95925   
     axis -90 7.62852e-016 20   XYZ
    dof rx rz
    limits (-45.0 90.0)
           (-70.0 20.0)
  end
  begin
     id 5 
     name ltoes
     direction 1.53554e-011 -4.21843e-011 1   
     length 0.978318   
     axis -90 7.62852e-016 20   XYZ
    dof rx
    limits (-90.0 20.0)
  end
  begin
     id 6 
     name rhipjoint
     direction -0.488109 -0.791693 0.367385   
     length 2.31113  
     axis 0 0 0  XYZ 
  end
  begin
     id 7 
     name rfemur
     direction -0.34202 -0.939693 0   
     length 7.40965   
     axis 0 0 -20   XYZ
    dof rx ry rz
    limits (-160.0 20.0)
           (-70.0 70.0)
           (-70.0 60.0)
  end
  begin
     id 8 
     name rtibia
     direction -0.34202 -0.939693 0   
     length 7.55548   
     axis 0 0 -20   XYZ
    dof rx
    limits (-10.0 170.0)
 end
 begin
     id 9 
     name rfoot
     direction -0.127594 -0.350561 0.927808   
     length 2.07199  
     axis -90 -7.62852e-016 -20   XYZ
    dof rx rz
    limits (-45.0 90.0)
           (-20.0 70.0)
  end
  begin
     id 10 
     name rtoes
     direction -1.53542e-011 -4.21909e-011 1   
     length 1.02667   
     axis -90 -7.62852e-016 -20   XYZ
    dof rx
    limits (-90.0 20.0)
  end
  begin
     id 11 
     name lowerback
     direction -0.0103342 0.997298 -0.0727278   
     length 2.02836   
     axis 0 0 0   XYZ
    dof rx ry rz
    limits (-20.0 45.0)
           (-30.0 30.0)
           (-30.0 30.0)
  end
  begin
     id 12 
     name upperback
     direction 0.0171146 0.999786 -0.011606   
     length 2.03179   
     axis 0 0 0   XYZ
    dof rx ry rz
    limits (-20.0 45.0)
           (-30.0 30.0)
           (-30.0 30.0)
  end
  begin
     id 13 
     name thorax
     direction 0.0216927 0.999513 0.0224343   
     length 2.03882   
     axis 0 0 0   XYZ
    dof rx ry rz
    limits (-20.0 45.0)
           (-30.0 30.0)
           (-30.0 30.0)
  end
  begin
     id 14 
     name lowerneck
     direction 0.000989287 0.993907 0.110221   
     length 1.75428   
     axis 0 0 0   XYZ
    dof rx ry rz
    limits (-20.0 45.0)
           (-30.0 30.0)
           (-30.0 30.0)
  end
  begin
     id 15 
     name upperneck
     direction -0.0172474 0.994813 -0.100253   
     length 1.77058   
     axis 0 0 0   XYZ
    dof rx ry rz
    limits (-20.0 45.0)
           (-30.0 30.0)
           (-30.0 30.0)
  end
  begin
     id 16
     name head
     direction -0.00486455 0.99894 -0.0457663  
     length 1.77427  
     axis 0 0 0   XYZ
    dof rx ry rz
    limits (-20.0 45.0)
           (-30.0 30.0)
           (-30.0 30.0)
  end
  begin
     id 17 
     name lclavicle
     direction 0.927314 0.333734 -0.169441  
     length 3.97584  
     axis 0 0 0   XYZ
    dof ry rz
    limits (-20.0 10.0)
           (0.0 20.0)
  end
  begin
     id 18 
     name lhumerus
     direction 1 -4.48965e-011 -3.25313e-028   
     length 4.76468   
     axis 180 -30 -90   XYZ
    dof rx ry rz
    limits (-60.0 90.0)
           (-90.0 90.0)
           (-90.0 90.0)
  end
  begin
     id 19
     name lradius
     direction 1 -4.48969e-011 -2.8465e-028   
     length 3.52712   
     axis -180 -30 -90   XYZ
    dof rx
    limits (-10.0 170.0)
  end
  begin
     id 20
     name lwrist
     direction 1 -4.4896e-011 -7.78665e-028   
     length 1.76356   
     axis 1.91374e-015 90 90   XYZ
    dof ry
    limits (-180.0 0.0)
 end
  begin
     id 21 
     name lhand
     direction 1 -4.48959e-011 -1.55733e-027   
     length 0.859564   
     axis 9.9371e-016 90 90   XYZ
    dof rx rz
    limits (-90.0 90.0)
           (-45.0 45.0)
  end
  begin
     id 22 
     name lfingers
     direction 1 -4.48965e-011 -3.11466e-027   
     length 0.693002   
     axis 1.98742e-015 90 90   XYZ
    dof rx
    limits (0.0 90.0)
  end
  begin
     id 23
     name lthumb
     direction 0.707107 -6.34948e-011 0.707107   
     length 0.995017   
     axis -90 45 2.85299e-015   XYZ
    dof rx rz
    limits (-45.0 45.0)
           (-45.0 45.0)
  end
  begin
     id 24 
     name rclavicle
     direction -0.899388 0.348209 -0.264294   
     length 3.68366  
     axis 0 0 0   XYZ 
    dof ry rz
    limits (-10.0 20.0)
           (-20.0 0.0)
  end
  begin
     id 25 
     name rhumerus
     direction -1 -4.48965e-011 -3.01536e-027  
     length 4.90577   
     axis 180 30 90   XYZ
    dof rx ry rz
    limits (-90.0 60.0)
           (-90.0 90.0)
           (-90.0 90.0)
  end
  begin
     id 26 
     name rradius
     direction -1 -4.48966e-011 3.93291e-027   
     length 3.42692   
     axis -180 30 90   XYZ
    dof rx
    limits (-10.0 170.0)
  end
  begin
     id 27 
     name rwrist
     direction -1 -4.48969e-011 -7.78665e-028   
     length 1.71346   
     axis 1.91374e-015 -90 -90   XYZ
    dof ry
    limits (-180.0 0.0)
  end
  begin
     id 28
     name rhand
     direction -1 -4.48967e-011 -1.55733e-027   
     length 0.740957   
     axis 9.9371e-016 -90 -90   XYZ
    dof rx rz
    limits (-90.0 90.0)
           (-45.0 45.0)
  end
  begin
     id 29
     name rfingers
     direction -1 -4.48949e-011 -3.11466e-027   
     length 0.597378   
     axis 1.98742e-015 -90 -90   XYZ
    dof rx
    limits (0.0 90.0)
  end
  begin
     id 30
     name rthumb
     direction -0.707107 -6.34931e-011 0.707107   
     length 0.857719   
     axis -90 -45 -2.85299e-015   XYZ
    dof rx rz
    limits (-45.0 45.0)
           (-45.0 45.0)
  end
:hierarchy
  begin
    root lhipjoint rhipjoint lowerback
    lhipjoint lfemur
    lfemur ltibia
    ltibia lfoot
    lfoot ltoes
    rhipjoint rfemur
    rfemur rtibia
    rtibia rfoot
    rfoot rtoes
    lowerback upperback
    upperback thorax
    thorax lowerneck lclavicle rclavicle
    lowerneck upperneck
    upperneck head
    lclavicle lhumerus
    lhumerus lradius
    lradius lwrist
    lwrist lhand lthumb
    lhand lfingers
    rclavicle rhumerus
    rhumerus rradius
    rradius rwrist
    rwrist rhand rthumb
    rhand rfingers
  end

#!OML:ASF E:\I on waltz\AllaLogoMonkeySwing\Project 1\Capture day 1\Session 1\Subject1.ASF
:FULLY-SPECIFIED
:DEGREES
146
root 0.266513 17.0521 -1.38023 16.7891 -16.9561 -2.71919
lowerback 24.8135 -3.08232 -6.4926
upperback 4.0259 -5.53556 1.74264
thorax -8.48099 -2.44396 7.37179
lowerneck -9.10666 12.0728 7.12755
upperneck -5.78417 15.384 -9.66637
head 1.11137 7.54281 -3.61698
rclavicle -7.95139e-016 1.74931e-014
rhumerus -45.2405 -0.523235 -83.4359
rradius 76.3479
rwrist -0.388308
rhand -10.152 -33.9078
rfingers 7.12502
rthumb 15.8372 -63.28
lclavicle -7.95139e-016 1.74931e-014
lhumerus -56.5418 -15.2707 83.3853
lradius 85.0225
lwrist 7.99101
lhand -16.4019 -18.4663
lfingers 7.12502
lthumb 9.81245 11.2851
rfemur -43.8937 2.61452 16.0212
rtibia 44.4482
rfoot -17.3176 6.9215
rtoes 12.5749
lfemur -34.5847 19.7086 -19.5287
ltibia 43.9061
lfoot -23.7403 9.36751
ltoes -14.2307
147
root 0.276597 16.8734 -1.42861 18.0811 -16.5546 -3.1251
lowerback 25.2979 -2.97065 -6.29293
upperback 4.20651 -5.3551 1.76567
thorax -8.57449 -2.36072 7.26508
lowerneck -9.25562 12.0745 7.26532
upperneck -7.04289 15.2964 -10.0028
head 0.756559 7.50745 -3.79275
rclavicle 1.82882e-014 2.14687e-014
rhumerus -46.1205 -1.42795 -82.9045
rradius 77.89
rwrist -1.15195
rhand -10.993 -34.3045
rfingers 7.12502
rthumb 15.0273 -63.7391
lclavicle 1.82882e-014 2.14687e-014
lhumerus -55.7257 -14.5793 82.0685
lradius 86.3612
lwrist 8.57561
lhand -16.2811 -18.5637
lfingers 7.12502
lthumb 9.92893 11.1821
rfemur -47.0183 1.88348 16.7569
rtibia 47.4851
rfoot -18.2909 6.43797
rtoes 11.1684
lfemur -38.1237 19.6243 -19.6932
ltibia 47.1855
lfoot -24.5678 9.4727
ltoes -14.4767
148
root 0.28551 16.6761 -1.4749 19.4685 -15.9936 -3.83655
lowerback 25.779 -2.89299 -5.76433
upperback 4.35107 -5.12278 1.8538
thorax -8.73668 -2.25665 7.02746
lowerneck -9.4407 12.0701 7.26368
upperneck -8.21704 15.2181 -10.0282
head 0.393503 7.47857 -3.83908
rclavicle 6.12257e-014 -6.36111e-015
rhumerus -46.8517 -2.42192 -82.4394
rradius 79.1122
rwrist -2.28717
rhand -11.8365 -34.7988
rfingers 7.12502
rthumb 14.2145 -64.2924
lclavicle 6.12257e-014 -6.36111e-015
lhumerus -54.5652 -13.1084 80.5803
lradius 87.3596
lwrist 8.76001
lhand -16.1074 -19.0619
lfingers 7.12502
lthumb 10.0965 10.6759
rfemur -50.2166 1.33507 17.8499
rtibia 50.5943
rfoot -19.2794 5.93335
rtoes 10.1709
lfemur -41.8031 19.5316 -19.4829
ltibia 50.6702
lfoot -25.4141 9.67016
ltoes -14.9444
149
root 0.292626 16.4624 -1.51335 20.6357 -15.3108 -4.48093
lowerback 26.6047 -2.81079 -5.38929
upperback 4.36065 -4.9325 2.01145
thorax -9.1964 -2.14668 7.00503
lowerneck -9.4227 12.0697 7.23223
upperneck -9.40531 15.1621 -10.0782
head -0.00630736 7.46569 -3.90386
rclavicle 4.37326e-014 2.8625e-014
rhumerus -47.3585 -3.32552 -81.8974
rradius 79.7881
rwrist -3.32807
rhand -11.9522 -35.0182
rfingers 7.12502
rthumb 14.103 -64.5197
lclavicle 4.37326e-014 2.8625e-014
lhumerus -53.3645 -10.7456 79.1978
lradius 88.1085
lwrist 8.75455
lhand -15.9189 -19.3129
lfingers 7.12502
lthumb 10.2784 10.416
rfemur -53.1986 0.773867 18.8859
rtibia 53.6976
rfoot -20.3009 5.47357
rtoes 9.72149
lfemur -45.2428 19.2874 -19.2317
ltibia 54.0832
lfoot -26.2451 9.85866
ltoes -15.4201
150
root 0.289266 16.2429 -1.55709 21.741 -14.4209 -5.15366
lowerback 27.4845 -2.66241 -5.13952
upperback 4.33159 -4.6746 2.28762
thorax -9.71258 -1.99652 7.17167
lowerneck -9.18707 12.0054 7.30565
upperneck -10.7808 15.0113 -10.3373
head -0.484953 7.40908 -4.09027
rclavicle 1.11319e-014 3.18055e-015
rhumerus -47.3982 -4.33193 -81.2325
rradius 80.015
rwrist -3.43269
rhand -10.7114 -36.713
rfingers 7.12502
rthumb 15.2985 -66.1272
lclavicle 1.11319e-014 3.18055e-015
lhumerus -51.86 -7.88739 78.0713
lradius 88.4984
lwrist 9.12262
lhand -16.1074 -19.5671
lfingers 7.12502
lthumb 10.0965 10.1707
rfemur -56.1528 0.313808 19.9688
rtibia 56.8928
rfoot -21.4086 4.8147
rtoes 9.23805
lfemur -48.7116 18.8945 -18.7699
ltibia 57.5591
lfoot -26.9556 10.1757
ltoes -15.6972
151
root 0.274574 16.0215 -1.60418 22.8883 -13.3049 -5.93294
lowerback 28.0961 -2.47558 -4.76585
upperback 4.37998 -4.30799 2.60577
thorax -10.0253 -1.81451 7.24703
lowerneck -9.23956 11.8899 7.19432
upperneck -11.9604 14.8107 -10.307
head -0.898987 7.32246 -4.12949
rclavicle -2.70347e-014 2.8625e-014
rhumerus -46.958 -5.27933 -80.9027
rradius 79.4853
rwrist -4.61409
rhand -11.8371 -35.5771
rfingers 7.12502
rthumb 14.2139 -65.0708
lclavicle -2.70347e-014 2.8625e-014
lhumerus -49.9183 -4.89211 77.1652
lradius 88.5513
lwrist 10.0273
lhand -16.8514 -19.8335
lfingers 7.12502
lthumb 9.37874 9.93787
rfemur -59.1525 -0.120266 21.248
rtibia 60.1745
rfoot -22.4924 3.94801
rtoes 8.98269
lfemur -52.314 18.5042 -18.0676
ltibia 61.2249
lfoot -27.7623 10.6621
ltoes -15.8418
152
root 0.257615 15.7913 -1.6268 23.7862 -12.0151 -6.58166
lowerback 28.5587 -2.32901 -4.26826
upperback 4.43557 -3.95644 2.82418
thorax -10.2674 -1.65089 7.12344
lowerneck -9.27723 11.7302 7.10529
upperneck -12.9362 14.571 -10.1497
head -1.26194 7.21158 -4.12654
rclavicle -4.05521e-014 -4.45278e-014
rhumerus -45.4294 -6.57222 -80.6699
rradius 78.0251
rwrist -4.15776
rhand -11.852 -35.7174
rfingers 7.12502
rthumb 14.1996 -65.2121
lclavicle -4.05521e-014 -4.45278e-014
lhumerus -48.0026 -1.84575 76.5425
lradius 88.4243
lwrist 11.5808
lhand -17.8637 -20.06
lfingers 7.12502
lthumb 8.40192 9.75288
rfemur -61.7828 -0.938895 22.5631
rtibia 63.3707
rfoot -23.6639 3.15154
rtoes 8.60122
lfemur -55.5227 18.0013 -17.4363
ltibia 64.7255
lfoot -28.7328 11.076
ltoes -15.9619
153
root 0.23428 15.5578 -1.62406 24.3036 -10.4702 -7.13027
lowerback 29.0093 -2.22708 -3.67399
upperback 4.46606 -3.633 2.98664
thorax -10.535 -1.50412 6.88481
lowerneck -8.97107 11.5395 7.22523
upperneck -13.9301 14.298 -10.0781
head -1.67057 7.08184 -4.21655
rclavicle 1.74931e-014 4.77083e-015
rhumerus -43.9995 -7.58507 -80.7517
rradius 76.874
rwrist -3.85679
rhand -12.4873 -38.1382
rfingers 7.12502
rthumb 13.5874 -67.6748
lclavicle 1.74931e-014 4.77083e-015
lhumerus -46.2475 1.12493 76.2993
lradius 88.1147
lwrist 13.8855
lhand -19.1715 -20.6779
lfingers 7.12502
lthumb 7.13958 9.18167
rfemur -63.835 -2.06615 23.9046
rtibia 66.354
rfoot -25.0411 2.40857
rtoes 7.85042
lfemur -58.148 17.3193 -16.7209
ltibia 67.9531
lfoot -29.7073 11.4276
ltoes -16.6688
154
root 0.195086 15.3336 -1.60657 24.5035 -8.68788 -7.65107
lowerback 29.4876 -2.08577 -3.10062
upperback 4.48373 -3.2595 3.14657
thorax -10.8311 -1.3337 6.63544
lowerneck -8.77018 11.3302 7.33651
upperneck -14.692 14.0274 -9.76289
head -2.00726 6.94216 -4.20441
rclavicle -3.49861e-014 2.38542e-014
rhumerus -41.4583 -8.40896 -81.3032
rradius 74.8828
rwrist -4.48716
rhand -13.1852 -38.8169
rfingers 7.12502
rthumb 12.9147 -68.3972
lclavicle -3.49861e-014 2.38542e-014
lhumerus -44.5627 3.97136 76.27
lradius 87.2992
lwrist 16.7177
lhand -20.1438 -21.5997
lfingers 7.12502
lthumb 6.20097 8.28952
rfemur -65.4235 -3.28926 25.2919
rtibia 69.1396
rfoot -26.5054 1.57576
rtoes 6.94225
lfemur -60.2713 16.5921 -15.7816
ltibia 70.9101
lfoot -30.6569 11.7378
ltoes -18.035
155
root 0.138238 15.1274 -1.57327 24.4411 -6.74225 -8.0428
lowerback 30.0342 -1.8307 -2.65527
upperback 4.10777 -2.77238 3.51839
thorax -10.9252 -1.15318 6.21477
lowerneck -8.77702 11.0526 7.34284
upperneck -15.1194 13.6863 -9.29651
head -2.22046 6.76196 -4.09358
rclavicle -3.65764e-014 4.92986e-014
rhumerus -38.7584 -8.7708 -82.2667
rradius 73.1349
rwrist -5.71161
rhand -14.6191 -38.2162
rfingers 7.12502
rthumb 11.5321 -67.8789
lclavicle -3.65764e-014 4.92986e-014
lhumerus -43.1315 6.25425 76.721
lradius 86.4739
lwrist 20.8443
lhand -21.1711 -21.671
lfingers 7.12502
lthumb 5.2091 8.24493
rfemur -66.6064 -4.65572 26.6502
rtibia 71.7527
rfoot -27.8389 0.548741
rtoes 6.17297
lfemur -61.8853 15.7907 -14.7626
ltibia 73.5147
lfoot -31.5348 11.8246
ltoes -19.49
156
root 0.0644242 14.9447 -1.52356 24.1544 -4.68192 -8.31151
lowerback 30.3383 -1.45305 -2.34866
upperback 4.05413 -2.15985 3.72935
thorax -11.1934 -0.867581 6.06845
lowerneck -8.87173 10.747 6.80433
upperneck -15.4968 13.3718 -8.50659
head -2.45843 6.61321 -3.77299
rclavicle -9.54166e-015 1.51076e-014
rhumerus -35.8922 -8.29852 -83.5539
rradius 71.7937
rwrist -6.23957
rhand -17.7525 -34.855
rfingers 7.12502
rthumb 8.50919 -64.6636
lclavicle -9.54166e-015 1.51076e-014
lhumerus -42.4686 8.30409 77.5552
lradius 85.448
lwrist 26.1236
lhand -21.4487 -22.5263
lfingers 7.12502
lthumb 4.94108 7.3961
rfemur -67.3697 -6.10797 27.9555
rtibia 74.1791
rfoot -28.9778 -0.729191
rtoes 5.87658
lfemur -63.0137 14.8489 -13.6958
ltibia 75.8253
lfoot -32.4508 11.7396
ltoes -20.9527
157
root -0.0206369 14.7898 -1.45541 23.5793 -2.54243 -8.37798
lowerback 30.6691 -0.918739 -2.17373
upperback 3.7529 -1.38452 3.91505
thorax -11.7643 -0.489712 5.91178
lowerneck -8.52864 10.3828 6.45153
upperneck -15.7065 12.9746 -8.06157
head -2.67534 6.42983 -3.62162
rclavicle 3.10104e-014 -3.18055e-014
rhumerus -32.4805 -7.27086 -84.8185
rradius 70.4132
rwrist -2.33937
rhand -17.5984 -35.4241
rfingers 7.12502
rthumb 8.65794 -65.2266
lclavicle 3.10104e-014 -3.18055e-014
lhumerus -42.6223 9.15241 78.7804
lradius 84.0258
lwrist 32.4568
lhand -22.1749 -23.1495
lfingers 7.12502
lthumb 4.23988 6.78809
rfemur -67.6356 -7.68408 29.0292
rtibia 76.3968
rfoot -30.1361 -2.12183
rtoes 6.16826
lfemur -63.5358 13.5708 -12.6684
ltibia 77.6988
lfoot -33.3722 11.647
ltoes -22.5666
